<svg xmlns="http://www.w3.org/2000/svg" viewBox="0 0 472 472">
  <circle cx="160" cy="223.988" r="88" fill="#fdbd40"/>
  <path d="M64 295.988c1.642 0 6.386-.09 8 0 11.558-33.976 34.901-64 72-64a98.2478 98.2478 0 0 1 40 8c13.6-39.291 53.546-72 96-72 56.606 0 95.132 44.883 104 96h16c39.764 0 72 32.236 72 72s-32.236 72-72 72c-18.626-1.036-35.996-9.721-48-24-13.842 13.385-53.37 24-71.619 24-20.109 0-57.834-8.039-72.381-24-15.278 15.831-36.491 24.536-58.486 24a98.1148 98.1148 0 0 1-45.514-16c-11.837 7.306-24.042 16-40 16-39.078 0-56-23.968-56-56s16.922-56 56-56z" fill="#87cee9"/>
  <path d="M333.633 278.926c-5.891-32.207-24.625-51.438-50.133-51.438v-16c33.352 0 58.594 24.738 65.867 64.562l-15.734 2.876z" fill="#fff"/>
  <g fill="#e9686a">
    <path d="M58.344 133.642l11.313-11.313 16 16-11.313 11.313-16-16zM34.347 109.642L45.66 98.329l16 16-11.313 11.313-16-16zM234.348 138.334l16-16 11.313 11.313-16 16-11.313-11.313zM258.348 114.329l16-16 11.313 11.313-16 16-11.313-11.313zM152 95.988h16v16h-16v-16zM152 63.988h16v16h-16v-16zM32 207.988h16v16H32v-16zM0 207.988h16v16H0v-16z"/>
  </g>
</svg>
