<svg xmlns="http://www.w3.org/2000/svg" viewBox="0 0 480 480">
  <path d="M240 40c-4.416 0-8-3.576-8-8V8c0-4.424 3.584-8 8-8s8 3.576 8 8v24c0 4.424-3.584 8-8 8z" fill="#77b9c8"/>
  <g fill="#bedde5">
    <path d="M8 328c-4.416 0-8-3.576-8-8v-24c0-4.424 3.584-8 8-8s8 3.576 8 8v24c0 4.424-3.584 8-8 8zM56 408c-4.416 0-8-3.576-8-8v-24c0-4.424 3.584-8 8-8s8 3.576 8 8v24c0 4.424-3.584 8-8 8zM104 312c-4.416 0-8-3.576-8-8v-24c0-4.424 3.584-8 8-8s8 3.576 8 8v24c0 4.424-3.584 8-8 8zM136 456c-4.416 0-8-3.576-8-8v-24c0-4.424 3.584-8 8-8s8 3.576 8 8v24c0 4.424-3.584 8-8 8zM184 360c-4.416 0-8-3.576-8-8v-24c0-4.424 3.584-8 8-8s8 3.576 8 8v24c0 4.424-3.584 8-8 8zM296 440c-4.416 0-8-3.576-8-8v-24c0-4.424 3.584-8 8-8s8 3.576 8 8v24c0 4.424-3.584 8-8 8zM344 360c-4.416 0-8-3.576-8-8v-24c0-4.424 3.584-8 8-8s8 3.576 8 8v24c0 4.424-3.584 8-8 8zM392 456c-4.416 0-8-3.576-8-8v-24c0-4.424 3.584-8 8-8s8 3.576 8 8v24c0 4.424-3.584 8-8 8zM424 312c-4.416 0-8-3.576-8-8v-24c0-4.424 3.584-8 8-8s8 3.576 8 8v24c0 4.424-3.584 8-8 8zM472 408c-4.416 0-8-3.576-8-8v-24c0-4.424 3.584-8 8-8s8 3.576 8 8v24c0 4.424-3.584 8-8 8z"/>
  </g>
  <path d="M240 240c-4.416 0-8 3.576-8 8v200c0 8.824-7.176 16-16 16s-16-7.176-16-16v-17.704c8.584-3.448 14.664-11.808 14.664-21.632 0-12.888-10.448-23.336-23.336-23.336S168 395.776 168 408.664c0 10.312 6.728 18.952 16 22.04V448c0 17.648 14.352 32 32 32s32-14.352 32-32V248c0-4.424-3.584-8-8-8z" fill="#77b9c8"/>
  <path d="M239.928 22.568c-57.424.816-103.784 99.696-103.784 233.432h215.56c0-133.736-49.928-232.616-111.776-233.432z" fill="#bedde5"/>
  <path d="M239.2 22.272c-118.408 0-214.4 99.672-214.4 218.08 0 4.016.128 15.648.344 15.648h111c0-128.816 46.36-228.352 103.784-229.144-.248 0-.488-2.184-.728-2.184.248 0 .488-1.04.728-1.04.224 0 .448-.576.68-.576-.224 0-.448 4.056-.68 4.064 61.848.792 111.776 100.064 111.776 228.88h101.552c.216 0 .352-11.424.352-15.44-.008-118.416-96-218.288-214.408-218.288z" fill="#77b9c8"/>
  <path d="M436.432 112.784c0 29.824-13.4 35.216-29.936 35.216s-29.936-5.392-29.936-35.216S406.496 40 406.496 40s29.936 42.96 29.936 72.784z" fill="#bedde5"/>
</svg>
