<svg xmlns="http://www.w3.org/2000/svg" viewBox="0 0 480 480">
  <path d="M426.208 158.964H383.56c.744-8.16 1.24-9.968 1.256-14.744.128-42.672-28.36-80.592-70.032-89.776-23.752-5.232-46.424-1.68-65.184 8.44-22.888-34.064-60.808-57.2-104.272-59.856-5.592-.768-11.256-1.304-17.056-1.304C57.432 1.724 0 60.948 0 134.012c0 38.072 15.688 72.288 40.648 96.424 22.072 24.488 52.72 40.304 89.008 42.936 0 0 295.432 1.464 296.552 1.464 29.712 0 53.792-25.936 53.792-57.928 0-32.008-24.088-57.944-53.792-57.944z" fill="#92c7d3"/>
  <g fill="#bedde5">
    <path d="M288.096 334.18c-2.048 0-4.096-.784-5.656-2.344-3.128-3.128-3.128-8.184 0-11.312l111.816-111.816c3.128-3.128 8.184-3.128 11.312 0s3.128 8.184 0 11.312L293.752 331.836c-1.568 1.568-3.608 2.344-5.656 2.344z"/>
    <path d="M399.904 334.18c-2.048 0-4.096-.784-5.656-2.344L282.44 220.028c-3.128-3.128-3.128-8.184 0-11.312s8.184-3.128 11.312 0l111.816 111.816c3.128 3.128 3.128 8.184 0 11.312-1.568 1.56-3.616 2.336-5.664 2.336z"/>
    <path d="M352 314.748v-89.152l21.936-21.864c3.128-3.12 3.144-8.184.016-11.32-3.12-3.128-8.176-3.144-11.312-.016L352 203.004v-12.728c0-4.416-3.576-8-8-8s-8 3.584-8 8v12.712l-10.6-10.576c-3.112-3.128-8.184-3.128-11.312.008-3.12 3.128-3.12 8.192.016 11.312L336 225.596v89.152l-21.896 21.864c-3.136 3.12-3.136 8.184-.016 11.312 1.56 1.568 3.616 2.352 5.664 2.352s4.096-.784 5.648-2.336l10.6-10.584v12.92c0 4.416 3.576 8 8 8s8-3.584 8-8V337.34l10.64 10.608c3.144 3.128 8.2 3.104 11.312-.016 3.128-3.128 3.112-8.192-.016-11.32L352 314.748z"/>
  </g>
  <circle cx="344.4" cy="269.852" r="29.824" fill="#e4f1f4"/>
  <g fill="#bedde5">
    <path d="M344.424 307.676c-20.856 0-37.832-16.968-37.832-37.824 0-20.856 16.968-37.832 37.832-37.832s37.832 16.968 37.832 37.832c-.008 20.856-16.976 37.824-37.832 37.824zm0-59.648c-12.04 0-21.832 9.792-21.832 21.832s9.792 21.824 21.832 21.824 21.832-9.792 21.832-21.824-9.792-21.832-21.832-21.832zM40.096 454.18c-2.048 0-4.096-.784-5.656-2.344-3.128-3.128-3.128-8.184 0-11.312l111.816-111.816c3.128-3.128 8.184-3.128 11.312 0s3.128 8.184 0 11.312L45.752 451.836c-1.568 1.568-3.608 2.344-5.656 2.344z"/>
    <path d="M151.904 454.18c-2.048 0-4.096-.784-5.656-2.344L34.44 340.028c-3.128-3.128-3.128-8.184 0-11.312s8.184-3.128 11.312 0l111.816 111.816c3.128 3.128 3.128 8.184 0 11.312-1.568 1.56-3.616 2.336-5.664 2.336zM424 262.276h-13.536l9.736-10.584c2.992-3.248 2.776-8.312-.48-11.304-3.248-2.984-8.304-2.776-11.304.472l-19.68 21.416H298.6l-20.568-21.528c-3.048-3.184-8.112-3.32-11.304-.256-3.192 3.056-3.312 8.12-.256 11.312l10.008 10.472H264c-4.424 0-8 3.584-8 8s3.576 8 8 8h12.464l-11.04 10.992c-3.136 3.12-3.152 8.176-.032 11.312 1.56 1.568 3.616 2.352 5.672 2.352 2.04 0 4.088-.776 5.64-2.336l22.432-22.32h89.656l20.888 22.152c1.576 1.664 3.696 2.512 5.824 2.512 1.968 0 3.944-.72 5.496-2.176 3.208-3.032 3.36-8.096.328-11.312l-10.544-11.176H424c4.424 0 8-3.584 8-8s-3.576-8-8-8z"/>
    <path d="M125.944 323.74c3.128-3.12 3.136-8.184.016-11.32-3.12-3.128-8.184-3.136-11.32-.016L104 323.012v-12.736c0-4.416-3.584-8-8-8s-8 3.584-8 8v12.712l-10.6-10.584c-3.128-3.136-8.192-3.128-11.312.008-3.128 3.128-3.12 8.192.008 11.312L88 345.588v89.168L66.096 456.62c-3.128 3.12-3.136 8.184-.008 11.312 1.568 1.56 3.608 2.344 5.664 2.344 2.048 0 4.088-.784 5.656-2.336L88 457.356v12.92c0 4.416 3.584 8 8 8s8-3.584 8-8v-12.944l10.648 10.608c3.128 3.112 8.192 3.096 11.32-.016 3.12-3.136 3.112-8.192-.016-11.32L104 434.748v-89.152l21.944-21.856z"/>
    <path d="M176 382.276h-13.528l9.736-10.584c2.992-3.248 2.784-8.312-.472-11.304-3.248-3-8.328-2.784-11.304.472l-19.696 21.416H50.608L30.04 360.748c-3.064-3.2-8.12-3.32-11.312-.256-3.192 3.056-3.312 8.12-.256 11.312l10 10.472H16c-4.416 0-8 3.584-8 8s3.584 8 8 8h12.456l-11.04 10.992c-3.136 3.12-3.144 8.176-.024 11.312 1.56 1.568 3.616 2.352 5.664 2.352 2.04 0 4.08-.776 5.648-2.336l22.432-22.32h89.656l20.888 22.152c1.576 1.664 3.696 2.512 5.824 2.512 1.968 0 3.944-.72 5.488-2.176 3.216-3.032 3.36-8.096.336-11.312l-10.544-11.176H176c4.416 0 8-3.584 8-8s-3.584-8-8-8z"/>
  </g>
  <circle cx="96.4" cy="389.852" r="29.824" fill="#e4f1f4"/>
  <path d="M96.424 427.676c-20.856 0-37.824-16.968-37.824-37.824 0-20.856 16.968-37.832 37.824-37.832s37.832 16.968 37.832 37.832c-.008 20.856-16.976 37.824-37.832 37.824zm0-59.648c-12.032 0-21.824 9.792-21.824 21.832s9.792 21.824 21.824 21.824 21.832-9.792 21.832-21.824-9.8-21.832-21.832-21.832z" fill="#bedde5"/>
</svg>
