<svg xmlns="http://www.w3.org/2000/svg" viewBox="0 0 483.512 483.512">
  <path fill="#fcb641" d="M475.512 241.691l-54.312 47.88 22.816 68.712-71.064 13.984-14.616 70.936-68.576-23.288-48.008 54.216-48-54.216-68.584 23.288-14.616-70.944-71.064-13.984 22.824-68.712L8 241.691l54.312-47.872-22.824-68.712 71.072-13.984 14.616-70.936 68.576 23.28 48-54.208 48.008 54.216 68.576-23.288 14.616 70.944 71.072 13.984-22.824 68.712z"/>
  <path d="M241.752 482.131c-2.288 0-4.472-.984-5.992-2.696l-44.48-50.232-63.544 21.568c-2.168.728-4.56.512-6.544-.632a8.0023 8.0023 0 0 1-3.856-5.328l-13.544-65.728-65.848-12.96c-2.256-.44-4.208-1.832-5.368-3.816a7.9742 7.9742 0 0 1-.68-6.552l21.152-63.688-50.336-44.368c-1.72-1.512-2.712-3.704-2.712-6s.992-4.488 2.712-6l50.336-44.376-21.152-63.696c-.72-2.176-.472-4.568.68-6.552 1.152-1.984 3.112-3.376 5.368-3.816l65.848-12.96 13.544-65.72a8.0023 8.0023 0 0 1 3.856-5.328c1.992-1.152 4.376-1.376 6.544-.632l63.536 21.568 44.48-50.232c3.032-3.432 8.944-3.432 11.976 0l44.48 50.232 63.544-21.568c2.176-.736 4.552-.504 6.544.632s3.4 3.08 3.856 5.328l13.544 65.728 65.84 12.96c2.248.44 4.2 1.832 5.368 3.816 1.16 1.984 1.4 4.368.68 6.552l-21.16 63.696 50.344 44.368c1.76 1.512 2.744 3.704 2.744 6s-.984 4.488-2.712 6l-50.344 44.368 21.16 63.696c.72 2.176.48 4.568-.68 6.552-1.168 1.984-3.12 3.376-5.368 3.816l-65.848 12.96-13.544 65.72c-.464 2.248-1.864 4.184-3.856 5.328s-4.376 1.376-6.544.632l-63.536-21.568-44.48 50.232c-1.536 1.712-3.72 2.696-6.008 2.696zm-48-70.208c2.248 0 4.448.952 5.992 2.696l42.016 47.448 42.016-47.448c2.144-2.408 5.512-3.312 8.56-2.272l59.992 20.368 12.792-62.056c.648-3.16 3.136-5.616 6.288-6.232l62.168-12.232-19.96-60.096c-1.008-3.04-.104-6.4 2.304-8.52l47.504-41.872-47.504-41.872c-2.408-2.12-3.312-5.48-2.304-8.52l19.96-60.096-62.16-12.232c-3.16-.624-5.64-3.08-6.288-6.232l-12.792-62.064-60 20.368c-3.056 1.048-6.432.144-8.56-2.272l-42.024-47.464-42.016 47.448c-2.128 2.416-5.512 3.328-8.56 2.272l-60-20.368-12.792 62.056c-.656 3.16-3.128 5.616-6.296 6.232l-62.16 12.232 19.96 60.096c1.008 3.04.104 6.4-2.304 8.52L20.08 241.683l47.504 41.864c2.408 2.12 3.32 5.48 2.304 8.52l-19.96 60.096 62.16 12.232c3.168.624 5.64 3.08 6.296 6.232l12.792 62.064 60-20.368c.84-.264 1.712-.4 2.576-.4z" fill="#4d4d4d"/>
  <circle cx="241.752" cy="244.339" r="133.64" fill="#fdc567"/>
  <path d="M241.752 385.979c-78.104 0-141.64-63.536-141.64-141.64s63.536-141.64 141.64-141.64 141.64 63.536 141.64 141.64c0 78.096-63.536 141.64-141.64 141.64zm0-267.28c-69.28 0-125.64 56.36-125.64 125.64s56.368 125.64 125.64 125.64c69.28 0 125.64-56.36 125.64-125.64s-56.36-125.64-125.64-125.64z" fill="#4d4d4d"/>
</svg>
